<?xml version="1.0" standalone="no"?>
<!DOCTYPE svg PUBLIC "-//W3C//DTD SVG 20010904//EN"
 "http://www.w3.org/TR/2001/REC-SVG-20010904/DTD/svg10.dtd">
<svg version="1.0" xmlns="http://www.w3.org/2000/svg"
 width="514.000000pt" height="514.000000pt" viewBox="0 0 514.000000 514.000000"
 preserveAspectRatio="xMidYMid meet">
<metadata>
Created by potrace 1.11, written by Peter Selinger 2001-2013
</metadata>
<g transform="translate(0.000000,514.000000) scale(0.100000,-0.100000)"
fill="#000000" stroke="none">
<path d="M4023 3859 c-18 -11 -35 -30 -40 -42 -4 -12 -8 -119 -9 -237 -2 -248
0 -230 -16 -230 -34 -1 -57 -42 -108 -195 -29 -88 -68 -200 -87 -250 -34 -87
-35 -93 -28 -180 10 -128 14 -112 -46 -222 -23 -43 30 -72 64 -35 8 9 27 42
42 72 24 52 25 61 19 165 -6 106 -5 113 24 185 16 41 53 146 82 233 51 156 52
157 81 157 61 0 104 -81 94 -176 -3 -27 -17 -87 -30 -134 -40 -142 -41 -151
-7 -201 60 -89 80 -218 57 -375 -12 -77 -12 -91 1 -105 19 -21 49 -14 62 16
l11 23 225 1 c124 0 226 -4 226 -8 0 -20 -107 -105 -163 -131 -73 -32 -116
-41 -200 -41 l-62 0 -67 -72 c-68 -72 -78 -93 -56 -115 23 -23 44 -12 96 47
l52 58 77 7 c89 7 149 23 219 59 60 30 140 100 178 156 25 36 33 41 68 41 90
0 128 48 128 162 l0 74 51 49 c28 28 59 62 69 76 39 54 32 117 -18 162 -21 19
-20 19 14 64 51 67 43 137 -23 188 -11 8 -8 15 10 36 50 53 62 114 31 158 -16
22 -15 24 26 64 54 54 73 90 67 133 -13 91 -110 149 -188 110 -17 -9 -33 -16
-34 -16 -1 0 -1 46 -1 101 1 69 -3 111 -13 131 -28 57 -33 58 -458 58 -374 0
-389 -1 -420 -21z m808 -76 c2 -20 1 -99 0 -123 -1 -13 -26 -15 -168 -14 -165
2 -168 1 -194 -23 l-27 -24 -24 24 c-23 23 -27 24 -187 23 -136 -1 -164 2
-170 14 -6 12 -7 100 -2 133 0 4 174 7 386 7 360 0 385 -1 386 -17z m-505
-207 c7 -3 11 -22 9 -51 -1 -25 1 -48 5 -50 3 -2 27 10 54 26 l47 30 55 -31
54 -31 0 55 0 56 83 1 c45 0 109 1 142 2 l60 2 -1 -133 0 -133 -72 -72 c-47
-47 -72 -80 -72 -95 0 -34 26 -89 54 -115 l25 -24 -39 -38 c-24 -24 -40 -48
-40 -62 0 -35 26 -90 54 -116 l25 -24 -39 -38 c-27 -26 -40 -48 -40 -66 l0
-26 -244 -1 -243 0 -13 42 c-6 22 -26 67 -43 99 l-30 58 28 97 c40 134 42 266
5 330 -13 24 -39 52 -57 63 -18 11 -34 26 -34 32 -1 7 -2 57 -3 112 l-1 100
40 5 c46 6 213 3 231 -4z m712 -48 c26 -34 22 -54 -20 -100 -47 -50 -78 -70
-95 -60 -5 4 -9 31 -9 61 1 47 5 57 34 82 34 30 73 38 90 17z m-77 -248 c39
-21 24 -58 -55 -138 l-74 -74 -29 17 c-33 20 -42 59 -15 74 9 6 14 11 10 11
-4 0 19 24 50 53 31 28 59 55 60 60 5 10 30 9 53 -3z m3 -246 c28 -28 17 -52
-57 -128 -63 -63 -77 -72 -93 -64 -20 11 -44 37 -44 49 0 9 123 134 146 147
25 15 30 15 48 -4z m-1 -238 c32 -25 20 -54 -57 -131 l-73 -73 -32 19 c-17 10
-31 26 -31 35 0 17 125 147 150 157 22 8 23 8 43 -7z m-196 -256 c21 -11 43
-20 50 -20 7 0 14 -8 14 -17 3 -35 1 -84 -4 -89 -3 -3 -141 -5 -308 -5 l-304
0 -3 76 -3 75 261 0 c241 0 263 -1 297 -20z"/>
<path d="M4427 3403 c-14 -13 -7 -33 11 -33 24 0 32 8 25 26 -5 15 -25 19 -36
7z"/>
<path d="M4424 3279 c-3 -6 -1 -16 4 -21 13 -13 45 8 36 23 -7 12 -31 11 -40
-2z"/>
<path d="M4425 3170 c-4 -6 -1 -17 5 -26 10 -11 16 -12 26 -3 11 9 11 15 3 25
-14 17 -25 18 -34 4z"/>
<path d="M4427 2513 c-19 -19 -10 -61 17 -75 11 -6 22 -12 22 -12 8 -4 44 41
44 54 0 38 -56 60 -83 33z"/>
<path d="M2541 3473 c-5 -21 -12 -51 -15 -68 -11 -55 -14 -69 -30 -140 -9 -38
-19 -81 -22 -95 -12 -62 -10 -61 -62 -37 -57 25 -180 29 -257 8 -183 -50 -310
-207 -320 -393 -8 -143 53 -255 169 -315 72 -37 181 -37 254 0 32 16 52 22 51
14 -1 -6 -1 -17 0 -22 1 -12 345 -14 357 -2 4 4 9 13 10 20 2 7 10 39 18 72
24 94 25 92 -44 92 -33 0 -62 2 -64 4 -2 2 9 58 25 124 15 66 25 123 23 127
-3 5 -1 8 4 8 5 0 9 6 9 13 0 6 15 75 33 152 17 77 33 147 35 155 15 72 64
277 71 301 4 14 -12 16 -115 18 l-120 2 -10 -38z m-204 -535 c65 -29 73 -53
50 -146 -21 -86 -39 -112 -103 -141 -82 -39 -156 -22 -191 44 -40 75 8 203 91
240 40 17 117 19 153 3z"/>
<path d="M1350 3150 c-120 -25 -207 -84 -271 -183 -113 -174 -95 -389 42 -498
142 -112 412 -86 553 53 15 15 24 28 20 28 -5 0 -38 27 -74 60 -36 33 -68 60
-72 60 -4 0 -29 -14 -55 -30 -110 -69 -239 -39 -258 59 -2 11 -1 22 3 22 4 1
117 3 252 4 135 2 248 3 252 4 14 2 28 68 28 131 0 146 -110 272 -260 296 -71
12 -81 11 -160 -6z m163 -195 c30 -19 51 -50 43 -63 -5 -9 -281 -10 -290 -2
-13 14 44 63 92 79 59 20 110 16 155 -14z"/>
<path d="M3227 3164 c-2 -2 -23 -6 -47 -9 -54 -7 -174 -64 -215 -103 -100 -93
-147 -210 -141 -347 3 -70 23 -145 38 -145 4 0 8 -6 8 -13 0 -21 78 -94 125
-116 141 -66 361 -30 485 80 l34 30 -34 31 c-19 16 -52 46 -73 65 -42 39 -41
39 -116 -9 -48 -30 -154 -32 -193 -3 -29 21 -48 55 -48 83 0 16 20 18 260 17
l260 0 8 35 c14 67 7 172 -16 220 -40 86 -143 164 -230 176 -71 9 -101 11
-105 8z m65 -189 c32 -7 78 -51 78 -75 0 -15 -15 -17 -145 -16 -82 0 -145 4
-145 9 0 20 71 75 107 84 37 10 51 9 105 -2z"/>
<path d="M560 3143 c-25 -8 -52 -21 -61 -29 -19 -17 -30 -18 -28 -1 1 6 1 17
0 22 -1 8 -300 13 -352 6 -4 -1 -9 -13 -12 -28 -5 -29 -13 -61 -21 -91 -2 -9
-7 -29 -10 -44 l-6 -28 65 0 c73 0 69 7 48 -77 -3 -16 -8 -37 -10 -47 -2 -11
-10 -45 -18 -75 -7 -31 -28 -119 -45 -196 -17 -77 -33 -147 -35 -155 -52 -224
-66 -281 -71 -294 -7 -20 -24 -18 189 -20 197 -2 189 -4 201 64 3 19 10 53 16
75 5 22 10 42 10 45 0 3 -28 5 -62 4 -35 -1 -66 2 -69 7 -4 8 28 158 36 167 1
1 24 -7 51 -18 92 -40 237 -26 348 33 143 76 226 216 226 380 0 97 -24 159
-89 230 -65 72 -203 104 -301 70z m118 -236 c26 -24 44 -81 37 -118 -25 -138
-152 -209 -271 -153 -53 25 -67 52 -54 105 6 24 12 52 15 62 19 83 65 123 160
140 31 5 88 -13 113 -36z"/>
<path d="M1089 2336 c-2 -2 -22 -6 -44 -9 -22 -2 -52 -10 -67 -16 -16 -6 -28
-7 -28 -3 0 4 -4 2 -8 -4 -4 -5 -24 -18 -45 -28 -33 -15 -111 -86 -155 -140
-15 -18 -51 -101 -55 -125 -1 -9 -5 -20 -8 -26 -3 -5 -5 -46 -5 -90 1 -65 7
-91 29 -138 43 -93 129 -160 222 -172 28 -4 51 -8 53 -10 6 -6 89 16 120 33
32 16 34 16 46 0 12 -16 33 -18 189 -18 193 0 182 -4 193 69 8 46 12 66 14 66
8 0 8 55 0 56 -5 0 -31 1 -57 2 -27 0 -51 4 -54 9 -5 8 22 137 52 248 5 19 11
46 14 60 2 14 13 60 23 104 29 116 33 111 -93 114 -92 2 -109 0 -120 -14 -12
-16 -15 -16 -56 3 -24 11 -62 20 -84 22 -22 1 -47 4 -56 6 -8 3 -17 3 -20 1z
m105 -241 c29 -19 52 -54 47 -70 -2 -5 -9 -38 -17 -73 -13 -62 -47 -120 -71
-121 -7 -1 -13 -5 -13 -9 0 -4 -24 -13 -54 -19 -64 -14 -114 -2 -148 34 -30
32 -37 126 -13 174 24 45 81 97 114 102 53 8 129 -1 155 -18z"/>
<path d="M2049 2329 c-62 -7 -140 -33 -181 -61 -14 -10 -29 -18 -33 -18 -4 0
-28 -22 -53 -50 -67 -71 -72 -77 -72 -95 0 -8 -4 -15 -9 -15 -8 0 -32 -74 -37
-114 -1 -12 -3 -21 -4 -21 -1 0 -3 -22 -4 -50 -4 -93 37 -195 102 -252 49 -42
141 -77 202 -77 49 1 150 37 150 54 0 6 5 10 11 10 7 0 9 -11 6 -27 -3 -16 -8
-44 -12 -63 -3 -19 -9 -42 -12 -50 -3 -8 -7 -22 -9 -30 -4 -22 -17 -84 -19
-90 -5 -19 -15 -70 -20 -95 l-4 -30 115 1 c63 1 117 3 119 6 4 4 44 185 68
314 2 10 7 26 10 34 3 8 8 29 11 45 3 17 14 68 26 115 12 47 26 105 31 130 17
82 20 94 45 195 14 55 27 116 30 135 3 19 11 43 16 54 16 29 -6 36 -120 36
-82 0 -104 -3 -108 -15 -6 -16 -44 -21 -44 -7 0 5 -26 14 -57 21 -80 17 -81
18 -144 10z m116 -231 c60 -29 65 -48 39 -146 -31 -119 -72 -153 -185 -148
-49 1 -71 7 -85 21 -43 43 -54 95 -34 166 10 36 61 99 80 99 6 0 10 4 10 9 0
25 125 24 175 -1z"/>
<path d="M2633 2312 c-10 -6 -25 -63 -40 -148 -5 -30 -4 -31 49 -40 29 -5 52
-14 51 -19 -9 -56 -14 -82 -33 -160 -12 -49 -23 -111 -25 -138 -2 -51 22 -140
36 -131 5 3 7 -1 4 -8 -5 -13 3 -19 74 -61 51 -30 192 -30 242 -1 62 36 72 38
65 9 l-7 -26 181 1 c99 1 178 5 176 8 -2 4 4 45 14 92 20 98 20 98 -61 94 -27
-2 -49 -2 -49 -1 0 1 7 34 15 72 9 39 18 81 21 95 6 29 36 157 64 277 11 45
20 85 20 88 0 8 -330 1 -331 -7 0 -4 -5 -22 -10 -40 -14 -44 -22 -87 -23 -118
-1 -24 2 -25 47 -22 53 3 55 0 36 -73 -5 -22 -12 -53 -15 -70 -13 -88 -47
-175 -68 -175 -8 0 -16 -5 -18 -11 -2 -5 -10 -11 -18 -13 -8 -2 -27 -6 -43
-11 -33 -9 -82 9 -102 39 -8 11 -15 37 -15 58 0 32 41 222 84 385 7 29 11 55
8 58 -8 8 -316 6 -329 -3z"/>
<path d="M3606 2312 c-5 -8 -21 -71 -32 -122 -2 -14 -7 -32 -10 -41 -6 -20 37
-31 92 -22 l37 6 -7 -34 c-4 -19 -9 -43 -11 -54 -3 -11 -9 -38 -14 -60 -14
-58 -24 -98 -27 -115 -3 -13 -44 -189 -61 -257 l-5 -23 185 0 c168 0 186 2
191 18 19 66 38 163 33 168 -3 3 -30 7 -59 9 -72 3 -70 2 -62 28 7 22 45 183
85 362 11 50 21 101 22 115 l2 25 -177 3 c-97 1 -179 -1 -182 -6z"/>
</g>
</svg>
